# xmcd
#
# Track frame offsets: 
#        150
#        12254
#        29528
#        47038
#        55226
#        69418
#        82458
#        92555
#        108985
#        117148
#        128878
#        140593
#        150838
#        161732
#        175850
#        188519
#        198477
#        209643
#        221486
#        232628
#        249785
#        258293
#        272226
#        291314
#        307506
#        318839
#
# Disc length: 4489 seconds
#
# Revision: 0
# Processed by: cddbd v1.5.2PL0 Copyright (c) Steve Scherf et al.
# Submitted via: ExactAudioCopyFreeDBPlugin 1.0
#
DISCID=6511871a
DTITLE=Rangers - Zlata kolekce [CD3)
DYEAR=2015
DGENRE=Country
TTITLE0=Slunovlaska (Love Or Something Like It)
TTITLE1=Bile utesy osudu (The Night They Drove Old Dixie Down)
TTITLE2=Novodoby Robinson (The Fields Of Home)
TTITLE3=Big Rock Candy Mountain
TTITLE4=Jsi mym osudem (On The Other Hand)
TTITLE5=Poplujem dal (Diggin' Up Bones)
TTITLE6=Neotalej (Twenty-One)
TTITLE7=Svita
TTITLE8=Dostavnik (Ride, Ride, Ride)
TTITLE9=Dej, Boze muj (Last Farewell)
TTITLE10=Mississippi (Mighty Mississippi)
TTITLE11=Vi to kazdej, vi (California)
TTITLE12=Kdyz nas dedek pali whisky (Com Whiskey)
TTITLE13=Nakladak (Joe Magarac)
TTITLE14=Je ze me tulak (Ramblin')
TTITLE15=Ukolebavka pro Mary Anne (My Dear Mary Anne)
TTITLE16=Zlomena ruze (A Travellin' Man)
TTITLE17=Frajer Joe (Natural Man)
TTITLE18=Uz mam jen jedinej cent (My Last Gold Dollar Is Gone)
TTITLE19=Stalo se v meste Langtry (Lily Langtry)
TTITLE20=Uz jsem si na to zvyk (It Don't Mean A Thing)
TTITLE21=Nahodou
TTITLE22=Polosen zmokleho vecera
TTITLE23=Vzdycky se ukaze rano
TTITLE24=Rio
TTITLE25=Na konci milenia
EXTD=
EXTT0=
EXTT1=
EXTT2=
EXTT3=
EXTT4=
EXTT5=
EXTT6=
EXTT7=
EXTT8=
EXTT9=
EXTT10=
EXTT11=
EXTT12=
EXTT13=
EXTT14=
EXTT15=
EXTT16=
EXTT17=
EXTT18=
EXTT19=
EXTT20=
EXTT21=
EXTT22=
EXTT23=
EXTT24=
EXTT25=
PLAYORDER=
